<svg width="29" height="33" viewBox="0 0 29 33" fill="none" xmlns="http://www.w3.org/2000/svg">
<path d="M2.10891 0.299805C3.39901 1.43045 4.78423 2.44772 6.24916 3.3403C9.83307 5.53205 11.6936 5.59933 16.3022 7.50384C21.1696 9.51445 23.6046 10.5185 25.6437 12.9793C26.4199 13.9264 28.6143 16.6486 28.6427 20.6362C28.6452 22.8714 27.9969 25.059 26.777 26.932C23.3355 32.1927 16.7654 32.5368 15.7485 32.6041C13.2452 32.7453 10.7461 32.2607 8.47713 31.1938C10.1178 31.7819 11.8916 31.8932 13.5929 31.5147C14.4857 31.2999 15.9529 30.9066 16.6619 29.6412C17.4692 28.1999 16.8379 26.5697 16.7136 26.2462C16.548 25.8141 16.1961 25.131 15.1093 24.114C14.3725 23.4441 13.5707 22.8495 12.7157 22.3389C12.4854 22.194 12.4751 22.194 11.5771 21.6661C11.4452 21.591 9.86671 20.6621 8.65568 19.9324C7.27129 19.0965 6.58556 18.6799 6.14048 18.3798C5.09935 17.7086 4.14355 16.9136 3.29406 16.0121C2.58186 15.243 1.97294 14.3845 1.4827 13.458C0.419172 11.3879 0.341542 9.45752 0.305315 8.21545C0.248727 5.46896 0.868096 2.75067 2.10891 0.299805Z" fill="url(#paint0_linear_317_4307)"/>
<defs>
<linearGradient id="paint0_linear_317_4307" x1="-1.28609" y1="3.6974" x2="24.5232" y2="29.5067" gradientUnits="userSpaceOnUse">
<stop stop-color="#CCC0B2"/>
<stop offset="0.26" stop-color="#AAAC9F"/>
<stop offset="0.83" stop-color="#537B70"/>
<stop offset="0.99" stop-color="#396C61"/>
</linearGradient>
</defs>
</svg>
